<svg id="Layer_1" data-name="Layer 1" xmlns="http://www.w3.org/2000/svg" width="1109.5" height="1077.5281" viewBox="0 0 1109.5 1077.5281"><defs><style>.cls-1{fill:#ccc;}.cls-2{fill:#e6e6e6;}.cls-3{fill:#b3b3b3;}.cls-4{fill:#006837;}.cls-5{fill:#999;}.cls-6{fill:#a67c52;}.cls-7{fill:#f15a24;}.cls-14,.cls-20,.cls-8{fill:#fff;}.cls-9{fill:#00a99d;}.cls-10,.cls-11{fill:#0071bc;}.cls-11,.cls-14,.cls-16,.cls-17,.cls-18,.cls-20,.cls-21{stroke:#000;}.cls-11,.cls-14,.cls-16,.cls-17,.cls-18,.cls-20,.cls-21,.cls-26{stroke-miterlimit:10;}.cls-12,.cls-17{fill:#c7b299;}.cls-13{fill:#754c24;}.cls-14,.cls-16,.cls-17{stroke-width:0.5px;}.cls-15{fill:blue;}.cls-16,.cls-18{fill:none;}.cls-19{fill:#39b54a;}.cls-21,.cls-22{fill:#c69c6d;}.cls-23{fill:#603813;}.cls-24{font-size:61px;font-family:MicrosoftSansSerif, Microsoft Sans Serif;letter-spacing:0.061em;}.cls-24,.cls-25,.cls-26{fill:#42210b;}.cls-26{stroke:#42210b;stroke-width:2px;}.cls-27{fill:#009245;}</style></defs><title>Bookshop2</title><circle class="cls-1" cx="140.5" cy="88.37865" r="44.19103"/><circle class="cls-1" cx="896.5" cy="290.36976" r="39.46002"/><circle class="cls-2" cx="655.83793" cy="303.64313" r="39.46002"/><circle class="cls-2" cx="686.5" cy="277.29245" r="39.46002"/><circle class="cls-2" cx="782.5" cy="271.78879" r="39.46002"/><ellipse class="cls-3" cx="767.57996" cy="301.09691" rx="147.73991" ry="44.9871"/><ellipse class="cls-1" cx="644.8239" cy="297.86988" rx="40.72" ry="13.38096"/><path class="cls-4" d="M1162,972.25808v.03c0,9.76-12.5352,18.35-31.53836,23.36a133.78307,133.78307,0,0,1-16.36991,3.19q-5.71368.765-11.81953,1.14h-.00842c-3.44275.2-6.9707.31-10.56678.31a163.136,163.136,0,0,1-30.58394-2.78,113.15156,113.15156,0,0,1-15.50933-4.08c-.4601-1.12-.90323-2.25-1.32931-3.4a143.88731,143.88731,0,0,1-8.27442-34.82c.605-.32,1.21863-.63,1.85775-.92,13.1402,9.26,31.45306,15,51.70886,15a101.05777,101.05777,0,0,0,27.24345-3.66,136.12968,136.12968,0,0,0,15.43267,3.75A177.23129,177.23129,0,0,0,1162,972.25808Z" transform="translate(-93.5 -316.45001)"/><path class="cls-5" d="M1130.12,1343.97811l-.03992-.11-.30005.1h-.05l-.04.01-.18994-.5h-96l-5.52,17.5h108.04Z" transform="translate(-93.5 -316.45001)"/><path class="cls-5" d="M1147.5,1315.86813l-.25-.76-.52-1.59-.73-2.23c0-.01,0-.01-.01-.02l-.26-.79H219v-48.5H154.77l-5.77,12.38-18.67,40.07-.55,1.17-36.28,77.88H1173.02Zm-119.52,45.11,5.52-17.5h96l.18994.5.04-.01h.05l.30005-.1.03992.11,5.9,17Z" transform="translate(-93.5 -316.45001)"/><rect class="cls-6" x="384.90235" y="805.79913" width="410.82904" height="375.99168" transform="translate(-623.31936 392.04286) rotate(-45)"/><path class="cls-6" d="M218,1037.97811v273H986v-273Zm81.18,220.43a67.47327,67.47327,0,0,1,2.16-17.43h65.93a65.44805,65.44805,0,0,1,2.3,12.52Z" transform="translate(-93.5 -316.45001)"/><path class="cls-7" d="M612.07,758.5881c-.16-.14-.33-.28-.5-.41l.04-.04Z" transform="translate(-93.5 -316.45001)"/><path d="M611.61,758.13806l-.04.04c.17.12994.34.27.5.41l-.46-.45Z" transform="translate(-93.5 -316.45001)"/><path class="cls-8" d="M298,1079.47852a15.77382,15.77382,0,0,1-15.5-16c0-.16114-.00049-.31153.00879-.47168l.03027-.52832H282.5V915.478h31v147.00049h-.03125l.022.53027c.00977.15918.00928.30957.00928.46973A15.77382,15.77382,0,0,1,298,1079.47852Z" transform="translate(-93.5 -316.45001)"/><path d="M313,915.97809v146h-.07056l.06229,1.05871c.00882.15.00827.2912.00827.44129a15.00806,15.00806,0,1,1-30,0c0-.15009-.00055-.29126.00827-.44129l.05231-1.05871H283v-146h30m1-1H282v148h.01c-.01.17-.01.32995-.01.5a16.00758,16.00758,0,1,0,32,0c0-.17005,0-.33-.01-.5H314v-148Z" transform="translate(-93.5 -316.45001)"/><path class="cls-9" d="M330,1079.47852a15.77382,15.77382,0,0,1-15.5-16c0-.16114-.00049-.31153.00879-.47168l.03027-.52832H314.5V915.478h31v147.00049h-.03125l.022.53027c.00977.15918.00928.30957.00928.46973A15.77382,15.77382,0,0,1,330,1079.47852Z" transform="translate(-93.5 -316.45001)"/><path d="M345,915.97809v146h-.07056l.06229,1.05871c.00882.15.00827.2912.00827.44129a15.00806,15.00806,0,1,1-30,0c0-.15009-.00055-.29126.00827-.44129l.05231-1.05871H315v-146h30m1-1H314v148h.01c-.01.17-.01.32995-.01.5a16.00758,16.00758,0,1,0,32,0c0-.17005,0-.33-.01-.5H346v-148Z" transform="translate(-93.5 -316.45001)"/><path class="cls-8" d="M362,1079.47852a15.77382,15.77382,0,0,1-15.5-16c0-.16114-.00049-.31153.00879-.47168l.03027-.52832H346.5V915.478h31v147.00049h-.03125l.022.53027c.00977.15918.00928.30957.00928.46973A15.77382,15.77382,0,0,1,362,1079.47852Z" transform="translate(-93.5 -316.45001)"/><path d="M377,915.97809v146h-.07056l.06229,1.05871c.00882.15.00827.2912.00827.44129a15.00806,15.00806,0,1,1-30,0c0-.15009-.00055-.29126.00827-.44129l.05231-1.05871H347v-146h30m1-1H346v148h.01c-.01.17-.01.32995-.01.5a16.00758,16.00758,0,1,0,32,0c0-.17005,0-.33-.01-.5H378v-148Z" transform="translate(-93.5 -316.45001)"/><path class="cls-9" d="M266,1079.47852a15.77382,15.77382,0,0,1-15.5-16c0-.16114-.00049-.31153.00879-.47168l.03027-.52832H250.5V915.478h31v147.00049h-.03125l.022.53027c.00977.15918.00928.30957.00928.46973A15.77382,15.77382,0,0,1,266,1079.47852Z" transform="translate(-93.5 -316.45001)"/><path d="M281,915.97809v146h-.07056l.06229,1.05871c.00882.15.00827.2912.00827.44129a15.00806,15.00806,0,1,1-30,0c0-.15009-.00055-.29126.00827-.44129l.05229-1.05871H251v-146h30m1-1H250v148h.01c-.01.17-.01.32995-.01.5a16.00758,16.00758,0,1,0,32,0c0-.17005,0-.33-.01-.5H282v-148Z" transform="translate(-93.5 -316.45001)"/><path class="cls-8" d="M234,1079.47852a15.77382,15.77382,0,0,1-15.5-16c0-.16114-.00049-.31153.00879-.47168l.03027-.52832H218.5V915.478h31v147.00049h-.03125l.022.53027c.00977.15918.00928.30957.00928.46973A15.77382,15.77382,0,0,1,234,1079.47852Z" transform="translate(-93.5 -316.45001)"/><path d="M249,915.97809v146h-.07057l.0623,1.05871c.00882.15.00827.2912.00827.44129a15.00806,15.00806,0,1,1-30,0c0-.15009-.00055-.29126.00827-.44129l.05229-1.05871H219v-146h30m1-1H218v148h.01c-.01.17-.01.32995-.01.5a16.00758,16.00758,0,1,0,32,0c0-.17005,0-.33-.01-.5H250v-148Z" transform="translate(-93.5 -316.45001)"/><path class="cls-9" d="M394,1079.47852a15.77382,15.77382,0,0,1-15.5-16c0-.16114-.00049-.31153.00879-.47168l.03027-.52832H378.5V915.478h31v147.00049h-.03125l.022.53027c.00977.15918.00928.30957.00928.46973A15.77382,15.77382,0,0,1,394,1079.47852Z" transform="translate(-93.5 -316.45001)"/><path d="M409,915.97809v146h-.07056l.06229,1.05871c.00882.15.00827.2912.00827.44129a15.00806,15.00806,0,1,1-30,0c0-.15009-.00055-.29126.00827-.44129l.05231-1.05871H379v-146h30m1-1H378v148h.01c-.01.17-.01.32995-.01.5a16.00758,16.00758,0,1,0,32,0c0-.17005,0-.33-.01-.5H410v-148Z" transform="translate(-93.5 -316.45001)"/><path class="cls-8" d="M874,1079.47852a15.77382,15.77382,0,0,1-15.5-16c0-.16114,0-.31153.00879-.47168l.03027-.52832H858.5V915.478h31v147.00049h-.0293l.02051.52832c.00879.16015.00879.31054.00879.47168A15.77382,15.77382,0,0,1,874,1079.47852Z" transform="translate(-93.5 -316.45001)"/><path d="M889,915.97809v146h-.07056l.06226,1.05871c.00885.15.0083.2912.0083.44129a15.00806,15.00806,0,1,1-30,0c0-.15009-.00055-.29126.0083-.44129l.05225-1.05871H859v-146h30m1-1H858v148h.01c-.01.17-.01.32995-.01.5a16.00758,16.00758,0,1,0,32,0c0-.17005,0-.33-.01-.5H890v-148Z" transform="translate(-93.5 -316.45001)"/><path class="cls-9" d="M906,1079.47852a15.77382,15.77382,0,0,1-15.5-16c0-.16114,0-.31153.00879-.47168l.03027-.52832H890.5V915.478h31v147.00049h-.0293l.02051.52832c.00879.16015.00879.31054.00879.47168A15.77382,15.77382,0,0,1,906,1079.47852Z" transform="translate(-93.5 -316.45001)"/><path d="M921,915.97809v146h-.07056l.06226,1.05871c.00885.15.0083.2912.0083.44129a15.00806,15.00806,0,1,1-30,0c0-.15009-.00055-.29126.0083-.44129l.05225-1.05871H891v-146h30m1-1H890v148h.01c-.01.17-.01.32995-.01.5a16.00758,16.00758,0,1,0,32,0c0-.17005,0-.33-.01-.5H922v-148Z" transform="translate(-93.5 -316.45001)"/><path class="cls-8" d="M938,1079.47852a15.77382,15.77382,0,0,1-15.5-16c0-.16114,0-.31153.00879-.47168l.03027-.52832H922.5V915.478h31v147.00049h-.0293l.02051.52832c.00879.16015.00879.31054.00879.47168A15.77382,15.77382,0,0,1,938,1079.47852Z" transform="translate(-93.5 -316.45001)"/><path d="M953,915.97809v146h-.07056l.06226,1.05871c.00885.15.0083.2912.0083.44129a15.00806,15.00806,0,1,1-30,0c0-.15009-.00055-.29126.0083-.44129l.05225-1.05871H923v-146h30m1-1H922v148h.01c-.01.17-.01.32995-.01.5a16.00758,16.00758,0,1,0,32,0c0-.17005,0-.33-.01-.5H954v-148Z" transform="translate(-93.5 -316.45001)"/><path class="cls-9" d="M842,1079.47852a15.77382,15.77382,0,0,1-15.5-16c0-.16114,0-.31153.00879-.47168l.03027-.52832H826.5V915.478h31v147.00049h-.0293l.02051.52832c.00879.16015.00879.31054.00879.47168A15.77382,15.77382,0,0,1,842,1079.47852Z" transform="translate(-93.5 -316.45001)"/><path d="M857,915.97809v146h-.07056l.06226,1.05871c.00885.15.0083.2912.0083.44129a15.00806,15.00806,0,1,1-30,0c0-.15009-.00055-.29126.0083-.44129l.05225-1.05871H827v-146h30m1-1H826v148h.01c-.01.17-.01.32995-.01.5a16.00758,16.00758,0,1,0,32,0c0-.17005,0-.33-.01-.5H858v-148Z" transform="translate(-93.5 -316.45001)"/><path class="cls-8" d="M810,1079.47852a15.77382,15.77382,0,0,1-15.5-16c0-.16114,0-.31153.00879-.47168l.03027-.52832H794.5V915.478h31v147.00049h-.0293l.02051.52832c.00879.16015.00879.31054.00879.47168A15.77382,15.77382,0,0,1,810,1079.47852Z" transform="translate(-93.5 -316.45001)"/><path d="M825,915.97809v146h-.07056l.06226,1.05871c.00885.15.0083.2912.0083.44129a15.00806,15.00806,0,1,1-30,0c0-.15009-.00055-.29126.0083-.44129l.05225-1.05871H795v-146h30m1-1H794v148h.01c-.01.17-.01.32995-.01.5a16.00758,16.00758,0,1,0,32,0c0-.17005,0-.33-.01-.5H826v-148Z" transform="translate(-93.5 -316.45001)"/><path class="cls-9" d="M970,1079.47852a15.77382,15.77382,0,0,1-15.5-16c0-.16114,0-.31153.00879-.47168l.03027-.52832H954.5V915.478h31v147.00049h-.0293l.02051.52832c.00879.16015.00879.31054.00879.47168A15.77382,15.77382,0,0,1,970,1079.47852Z" transform="translate(-93.5 -316.45001)"/><path d="M985,915.97809v146h-.07056l.06226,1.05871c.00885.15.0083.2912.0083.44129a15.00806,15.00806,0,1,1-30,0c0-.15009-.00055-.29126.0083-.44129l.05225-1.05871H955v-146h30m1-1H954v148h.01c-.01.17-.01.32995-.01.5a16.00758,16.00758,0,1,0,32,0c0-.17005,0-.33-.01-.5H986v-148Z" transform="translate(-93.5 -316.45001)"/><path class="cls-7" d="M591.10541,713.92523a.26923.26923,0,0,1,.051-.06117l1.18267-1.16235c.16317-.14275.33648-.28551.50979-.418A14.63075,14.63075,0,0,1,602,709.02518v16.36061l-9.65068,9.52262L413.01738,911.89893l-3.10973,3.07918h-10.114l-6.19906-6.11754Z" transform="translate(-93.5 -316.45001)"/><path class="cls-7" d="M612.89459,713.92931a.269.269,0,0,0-.051-.06117l-1.18267-1.16233c-.16317-.14275-.33648-.28551-.50979-.418A14.63094,14.63094,0,0,0,602,709.02935v16.36028l9.65068,9.52242L790.98262,911.899l3.10973,3.07912H804.2064l6.19906-6.11741Z" transform="translate(-93.5 -316.45001)"/><rect class="cls-10" x="189" y="797.0285" width="127" height="127"/><path d="M409,1113.97809v126.00006H283V1113.97809H409m1-1H282v128.00006H410V1112.97809Z" transform="translate(-93.5 -316.45001)"/><rect class="cls-10" x="701" y="797.0285" width="127" height="127"/><path d="M921,1113.97809v126.00006H795V1113.97809H921m1-1H794v128.00006H922V1112.97809Z" transform="translate(-93.5 -316.45001)"/><line class="cls-11" x1="764.5" y1="796.5281" x2="764.5" y2="924.5281"/><line class="cls-11" x1="828.5" y1="860.5281" x2="700.5" y2="860.5281"/><path class="cls-12" d="M353,1189.47811v13h-6.16a15.77906,15.77906,0,0,1-5.44,2.86,14.72278,14.72278,0,0,1-3.78.62c-.2.02-.41.02-.62.02a15.63307,15.63307,0,0,1-9.85-3.5c-.01-.01-.03-.02-.04-.03-.02-.02-.04-.03-.06-.05-.08-.06-.16-.13-.23-.19-.09-.08-.17-.15-.25-.23h-.01a1.54828,1.54828,0,0,1-.13-.12c-.22-.2-.44-.41-.65-.62a16.91011,16.91011,0,0,1-1.13-1.26.78953.78953,0,0,0-.12-.15c-.16-.22-.33-.44-.49-.67-.17-.25-.34-.5-.5-.76-.16-.25-.31-.52-.46-.78-.13-.24006-.25-.48005-.37-.72a15.44816,15.44816,0,0,1-.84-2.05c-.07-.21-.14-.42-.2-.64q-.13494-.45-.24-.9v-.02c-.07-.3-.13-.61-.18-.92-.06-.30005-.1-.61005-.14-.93006v-.03c-.04-.31-.06-.63-.08-.95s-.03-.65-.03-.98a16.25526,16.25526,0,0,1,16-16.5c.34,0,.68.01,1.02.04.21.01.41.02.62.05.26.02.51.06.77.1a.67816.67816,0,0,1,.14.02c.22.03.43.07.65.12.45.09.89.21,1.33.34.2.06.4.13.59.2.18.06.36.12.54.19.14.06.28.11.41.17.41.17.82.37,1.21.58.16.08.32.17.48.26a15.9127,15.9127,0,0,1,2.9,2.13c.18006.16.35.33.52.5.34.34.66.69995.97,1.07a14.15484,14.15484,0,0,1,.88,1.16q.42.6.78,1.23c.22.39.42.78.61,1.19.12.24.22.48.32.73a16.27791,16.27791,0,0,1,1.04,3.69,5.39351,5.39351,0,0,1,.08.58,1.12686,1.12686,0,0,1,.03.18A18.14231,18.14231,0,0,1,353,1189.47811Z" transform="translate(-93.5 -316.45001)"/><path class="cls-12" d="M353,1189.47811a16.76012,16.76012,0,0,1-.38,3.57.51536.51536,0,0,1-.02.11c-.1.46-.22.92-.36,1.37a16.70228,16.70228,0,0,1-4.8,7.45c-.2.17-.4.34-.6.5a15.77906,15.77906,0,0,1-5.44,2.86,14.72278,14.72278,0,0,1-3.78.62c-.2.02-.41.02-.62.02a15.63307,15.63307,0,0,1-9.85-3.5c-.01-.01-.03-.02-.04-.03-.02-.02-.04-.03-.06-.05-.08-.06-.16-.13-.23-.19-.09-.08-.17-.15-.25-.23h-.01a1.54828,1.54828,0,0,1-.13-.12c-.22-.2-.44-.41-.65-.62a16.91011,16.91011,0,0,1-1.13-1.26.78953.78953,0,0,0-.12-.15c-.16-.22-.33-.44-.49-.67-.17-.25-.34-.5-.5-.76-.16-.25-.31-.52-.46-.78-.13-.24006-.25-.48005-.37-.72a15.44816,15.44816,0,0,1-.84-2.05c-.07-.21-.14-.42-.2-.64q-.13494-.45-.24-.9v-.02c-.07-.3-.13-.61-.18-.92-.06-.30005-.1-.61005-.14-.93006v-.03c-.04-.31-.06-.63-.08-.95s-.03-.65-.03-.98a16.25526,16.25526,0,0,1,16-16.5c.34,0,.68.01,1.02.04.21.01.41.02.62.05.26.02.51.06.77.1a.67816.67816,0,0,1,.14.02c.22.03.43.07.65.12.45.09.89.21,1.33.34.2.06.4.13.59.2.18.06.36.12.54.19.14.06.28.11.41.17.41.17.82.37,1.21.58.16.08.32.17.48.26a15.9127,15.9127,0,0,1,2.9,2.13c.18006.16.35.33.52.5.34.34.66.69995.97,1.07a14.15484,14.15484,0,0,1,.88,1.16q.42.6.78,1.23c.22.39.42.78.61,1.19.12.24.22.48.32.73a16.27791,16.27791,0,0,1,1.04,3.69,5.39351,5.39351,0,0,1,.08.58,1.12686,1.12686,0,0,1,.03.18A18.14231,18.14231,0,0,1,353,1189.47811Z" transform="translate(-93.5 -316.45001)"/><path class="cls-13" d="M352.89,1187.50808a15.6345,15.6345,0,0,0-9.89-3.53,16.25526,16.25526,0,0,0-16,16.5,14.78425,14.78425,0,0,0,.07,1.5c.01.16.02.31.04.47-.02-.02-.04-.03-.06-.05-.08-.06-.16-.13-.23-.19-.09-.08-.17-.15-.25-.23h-.01a1.54828,1.54828,0,0,1-.13-.12c-.22-.2-.44-.41-.65-.62a16.91011,16.91011,0,0,1-1.13-1.26.78953.78953,0,0,0-.12-.15c-.16-.22-.33-.44-.49-.67-.17-.25-.34-.5-.5-.76-.16-.25-.31-.52-.46-.78-.13-.24006-.25-.48005-.37-.72a15.44816,15.44816,0,0,1-.84-2.05c-.07-.21-.14-.42-.2-.64q-.13494-.45-.24-.9v-.02c-.07-.3-.13-.61-.18-.92-.06-.30005-.1-.61005-.14-.93006v-.03c-.04-.31-.06-.63-.08-.95s-.03-.65-.03-.98a16.25526,16.25526,0,0,1,16-16.5c.34,0,.68.01,1.02.04.21.01.41.02.62.05.26.02.51.06.77.1a.67816.67816,0,0,1,.14.02c.22.03.43.07.65.12.45.09.89.21,1.33.34.2.06.4.13.59.2.18.06.36.12.54.19.14.06.28.11.41.17.41.17.82.37,1.21.58.16.08.32.17.48.26a15.9127,15.9127,0,0,1,2.9,2.13c.18006.16.35.33.52.5.34.34.66.69995.97,1.07a14.15484,14.15484,0,0,1,.88,1.16q.42.6.78,1.23c.22.39.42.78.61,1.19.12.24.22.48.32.73a16.27791,16.27791,0,0,1,1.04,3.69,5.39351,5.39351,0,0,1,.08.58A1.12686,1.12686,0,0,1,352.89,1187.50808Z" transform="translate(-93.5 -316.45001)"/><path class="cls-14" d="M353.17737,1193.36664l-.045.09553-3.06062-1.73226c.011-.03009.02245-.05838.03392-.08667C351.56321,1192.4349,352.53275,1192.98515,353.17737,1193.36664Z" transform="translate(-93.5 -316.45001)"/><path class="cls-14" d="M350.55972,1192.00608" transform="translate(-93.5 -316.45001)"/><path class="cls-15" d="M350.8584,1194.82422a2.90838,2.90838,0,0,1-.647-2.72852l2.58252,1.46192a2.64656,2.64656,0,0,1-1.56983,1.1914A2.56072,2.56072,0,0,1,350.8584,1194.82422Z" transform="translate(-93.5 -316.45001)"/><path d="M350.38336,1192.48083l2.05115,1.16089a2.39689,2.39689,0,0,1-1.27786.86707q-.09984.02773-.20011.04645a2.67293,2.67293,0,0,1-.57318-2.07441m-.31161-.75091a3.15188,3.15188,0,0,0,.69033,3.35492,2.80335,2.80335,0,0,0,.52823-.09424,2.93629,2.93629,0,0,0,1.84208-1.52844l-3.06064-1.73224Z" transform="translate(-93.5 -316.45001)"/><path class="cls-8" d="M350.22412,1194.83008a2.825,2.825,0,0,1-2.3833-2.07031,2.85571,2.85571,0,0,1,.15283-1.96778c.66748.35449,1.26514.67578,1.8003.9668a3.35,3.35,0,0,0-.064,2.02246A3.41388,3.41388,0,0,0,350.22412,1194.83008Z" transform="translate(-93.5 -316.45001)"/><path d="M348.122,1191.14355q.74391.39615,1.371.736a3.6036,3.6036,0,0,0-.00406,1.96862,3.68942,3.68942,0,0,0,.23026.613,2.63678,2.63678,0,0,1-1.59723-3.31757m-.23547-.69128a.16327.16327,0,0,0-.01636.03162,3.1052,3.1052,0,0,0-.27017,2.34246,3.05626,3.05626,0,0,0,2.91336,2.26923c.08249,0,.16562-.00354.24868-.01074a3.15188,3.15188,0,0,1-.69033-3.35492l3.06064,1.73224.045-.09552c-.64462-.38147-1.61417-.93176-3.07169-1.72339-.64157-.34949-1.37683-.74451-2.21911-1.191Z" transform="translate(-93.5 -316.45001)"/><path class="cls-14" d="M347.88657,1190.45229c.84227.44647,1.57756.84145,2.21912,1.191,1.45752.79166,2.42706,1.34192,3.07169,1.72341l-.045.09552-3.06063-1.73226-2.20154-1.246" transform="translate(-93.5 -316.45001)"/><path class="cls-16" d="M341.88408,1205.49084a2.56049,2.56049,0,0,1-1.95464-2.91334" transform="translate(-93.5 -316.45001)"/><path class="cls-12" d="M339.82,1214.47811H325.07l1.75-12.27c.07.06.15.13.23.19.02.02.04.03.06.05.01.01.03.02.04.03a15.63307,15.63307,0,0,0,9.85,3.5c.21,0,.42,0,.62-.02Z" transform="translate(-93.5 -316.45001)"/><path class="cls-17" d="M334.42312,1189.24529c-.02077-.01767-.04392-.035-.06706-.05232a2.80769,2.80769,0,0,0-3.36325,4.49346,2.64887,2.64887,0,0,0,1.13357.48941" transform="translate(-93.5 -316.45001)"/><path class="cls-17" d="M331.50651,1195.1289a1.44831,1.44831,0,0,0,1.7285-2.30936" transform="translate(-93.5 -316.45001)"/><line class="cls-18" x1="188.5" y1="860.2781" x2="316.5" y2="860.2781"/><path class="cls-19" d="M367.27,1240.97811H301.34a2.8611,2.8611,0,0,1,.06994-.28c.02-.07.04-.14.06-.22,1.22-4.59,3.63-13.36,9.93-19.79,5.37-5.48,10.87-6.5,13.74-6.68.22-.02.42-.02.6-.03l13.2.13c.23-.04.48-.07.76-.11005a18.64465,18.64465,0,0,1,7.78.74,20.85874,20.85874,0,0,1,6.38,3.35c6.99,5.31,10.21,13.81,11.84,18.12.55,1.46,1.02,2.89,1.43,4.27C367.18,1240.64809,367.23,1240.80807,367.27,1240.97811Z" transform="translate(-93.5 -316.45001)"/><line class="cls-18" x1="189" y1="924.0281" x2="289.56104" y2="924.0281"/><line class="cls-18" x1="253.9842" y1="796.5281" x2="253.9842" y2="924.0281"/><rect class="cls-6" x="188.5" y="924.5281" width="138" height="28"/><rect class="cls-13" x="434" y="797.0285" width="78" height="197"/><path d="M605,1113.97809v196.00006H528V1113.97809h77m1-1H527v198.00006h79V1112.97809Z" transform="translate(-93.5 -316.45001)"/><path class="cls-19" d="M593,1114.97811" transform="translate(-93.5 -316.45001)"/><rect class="cls-10" x="450" y="830.0285" width="47" height="65"/><path d="M590,1146.97809v64.00006H544v-64.00006h46m1-1H543v66.00006h48v-66.00006Z" transform="translate(-93.5 -316.45001)"/><line class="cls-20" x1="473" y1="829.5281" x2="473" y2="895.5281"/><line class="cls-20" x1="497.5" y1="862.5281" x2="449.5" y2="862.5281"/><rect class="cls-21" x="590.5" y="1219.47811" width="8" height="24" transform="translate(1095.5 2146.50621) rotate(-180)"/><rect class="cls-13" x="513" y="797.0285" width="78" height="197"/><path d="M684,1113.97809v196.00006H607V1113.97809h77m1-1H606v198.00006h79V1112.97809Z" transform="translate(-93.5 -316.45001)"/><path class="cls-19" d="M619,1114.97811" transform="translate(-93.5 -316.45001)"/><rect class="cls-10" x="528" y="830.0285" width="47" height="65"/><path d="M668,1146.97809v64.00006H622v-64.00006h46m1-1H621v66.00006h48v-66.00006Z" transform="translate(-93.5 -316.45001)"/><line class="cls-20" x1="552" y1="829.5281" x2="552" y2="895.5281"/><line class="cls-20" x1="527.5" y1="862.5281" x2="575.5" y2="862.5281"/><rect class="cls-21" x="520" y="903.0281" width="8" height="24"/><rect class="cls-22" x="349" y="583.02802" width="319" height="82"/><path class="cls-23" d="M761,899.97809v81H443v-81H761m1-1H442v83H762v-83Z" transform="translate(-93.5 -316.45001)"/><path d="M458,794.97811" transform="translate(-93.5 -316.45001)"/><text x="-93.5" y="-316.45001"/><text class="cls-24" transform="translate(392.47803 642.19315)">BOOKS </text><polygon class="cls-25" points="1042.52 1044.528 987.3 1044.528 995 1041.858 995.01 1041.858 1036.19 1027.528 1036.23 1027.518 1036.28 1027.518 1036.58 1027.418 1036.62 1027.528 1042.52 1044.528"/><polygon class="cls-26" points="1042.52 1044.528 934.48 1044.528 940 1027.028 1036 1027.028 1036.19 1027.528 1042.52 1044.528"/><path class="cls-22" d="M1090,1187.97811v165h-16v-159.08a49.48153,49.48153,0,0,0,9.57007-5.92Z" transform="translate(-93.5 -316.45001)"/><polygon class="cls-5" points="1054 1077.028 1026 994.028 1052.5 994.528 1079.5 1077.528 1054 1077.028"/><path class="cls-27" d="M1028.58008,1006.47811c0,.23,0,.47-.01.7a133.6425,133.6425,0,0,1,41.01-6.2c18.65991,0,35.90991,3.54,49.92993,9.54-17.52-33.85-49.66992-56.54-86.42993-56.54a89.18721,89.18721,0,0,0-40.01,9.52C1013.52,968.59811,1028.58008,985.9081,1028.58008,1006.47811Z" transform="translate(-93.5 -316.45001)"/><path class="cls-27" d="M1144.34009,1161.7181c-16.5,16.04-37.56006,26.07-60.63013,27.15-1.38989.07995-2.8.11-4.21.11-26.93994,0-51.4-12.18-69.44995-32.01.48.01.96.01,1.44995.01,26.79,0,48.5-7.39,48.5-16.5a7.23662,7.23662,0,0,0-2.09009-4.81H1057.9q-6.06.3-12.4.31a223.74133,223.74133,0,0,1-35.89-2.78,151.61954,151.61954,0,0,1-18.20008-4.07995c-.53991-1.12006-1.05993-2.25-1.55993-3.4a126.52189,126.52189,0,0,1-9.71-34.82c-.11-.82-.21008-1.64-.29992-2.47.80993.53,1.62988,1.05,2.48,1.55,15.41992,9.26,36.90991,15,60.67993,15a137.96452,137.96452,0,0,0,31.97-3.66,183.1308,183.1308,0,0,0,18.11011,3.75,243.00064,243.00064,0,0,0,34.91992,2.88v.03c0,9.76-14.71,18.35-37.01,23.36a181.408,181.408,0,0,1-19.21,3.19c2.86,9.17,13.38989,17.07,28.22,22.01a115.12061,115.12061,0,0,0,36,5.44Q1140.24512,1161.97811,1144.34009,1161.7181Z" transform="translate(-93.5 -316.45001)"/><path class="cls-27" d="M1176.47,1102.92812c-.01.04-.02.08-.03.11a.86048.86048,0,0,0-.16992-.07C1176.34009,1102.95809,1176.4,1102.93807,1176.47,1102.92812Z" transform="translate(-93.5 -316.45001)"/><path class="cls-4" d="M1176.47,1102.9281c-.07.00995-.12988.03-.2.04a.86048.86048,0,0,1,.16992.07c.01-.03.02-.07.03-.11Z" transform="translate(-93.5 -316.45001)"/><path class="cls-4" d="M1071,1094.94808v.03c0,9.76-14.71,18.35-37.01,23.36a181.408,181.408,0,0,1-19.21,3.19,16.95651,16.95651,0,0,1-.78-5.05,18.72014,18.72014,0,0,1,3.83008-11.02c3.75-5.21,10.08984-9.8,18.25-13.39A243.00064,243.00064,0,0,0,1071,1094.94808Z" transform="translate(-93.5 -316.45001)"/><path class="cls-4" d="M1045.5,1134.47852a222.23166,222.23166,0,0,1-35.80859-2.77344,151.79292,151.79292,0,0,1-17.92676-4.00391c-.42578-.88867-.82129-1.74414-1.19922-2.59668a128.70182,128.70182,0,0,1,20.93457-1.626c2.333,0,4.58887.05371,6.70508.1582,17.69629.83594,32.58594,4.95215,38.56152,10.584C1052.98438,1134.3916,1049.2002,1134.47852,1045.5,1134.47852Z" transform="translate(-93.5 -316.45001)"/><path class="cls-27" d="M1011.5,1123.97809c2.35864,0,4.5437.05194,6.68286.15887,16.72669.78894,30.90271,4.50153,37.30847,9.63813-3.35425.13482-6.7052.203-9.99133.203a221.68649,221.68649,0,0,1-35.72729-2.76673,151.74733,151.74733,0,0,1-17.65363-3.9273c-.28607-.60028-.5639-1.19867-.83136-1.79041a128.95949,128.95949,0,0,1,20.21228-1.51556m0-1a129.19479,129.19479,0,0,0-21.65,1.74c.5,1.15,1.02,2.28,1.55993,3.4a151.61947,151.61947,0,0,0,18.20008,4.08,223.74133,223.74133,0,0,0,35.89,2.78q6.33,0,12.4-.31c-5.41-6.06-20.8-10.64-39.67-11.53q-3.29992-.165-6.73-.16Z" transform="translate(-93.5 -316.45001)"/><path class="cls-4" d="M1169.07007,1037.74807a49.43955,49.43955,0,0,1-37.07007,16.23c-1.35,0-2.67993-.05-4-.16v.16c0,13.04-8.5,24.92-22.40991,33.81a99.913,99.913,0,0,1-30.62012,12.53c-19.05005-5.02-33.01-12.5-38.45-21.18a15.18718,15.18718,0,0,1-2.52-8.16c0-15.09,25.14-28.01,60.81006-33.36a240.48638,240.48638,0,0,1,26.94995-2.46q4.79992-.18,9.74-.18A248.58007,248.58007,0,0,1,1169.07007,1037.74807Z" transform="translate(-93.5 -316.45001)"/><path class="cls-4" d="M968,1133.25808v.03c0,9.76,12.5352,18.35,31.53836,23.36a133.78307,133.78307,0,0,0,16.36991,3.19q5.71368.765,11.81953,1.14h.00842c3.44275.2,6.9707.31,10.56678.31a163.136,163.136,0,0,0,30.58394-2.78,113.15156,113.15156,0,0,0,15.50933-4.08c.4601-1.12.90323-2.25,1.32931-3.4a143.88731,143.88731,0,0,0,8.27442-34.82c-.605-.32-1.21863-.63-1.85775-.92-13.1402,9.26-31.45306,15-51.70886,15a101.05777,101.05777,0,0,1-27.24345-3.66,136.12968,136.12968,0,0,1-15.43267,3.75A177.23129,177.23129,0,0,1,968,1133.25808Z" transform="translate(-93.5 -316.45001)"/><path class="cls-4" d="M1071,1147.25808v.03c0,9.76,12.5352,18.35,31.53836,23.36a133.78307,133.78307,0,0,0,16.36991,3.19q5.71368.765,11.81953,1.14h.00842c3.44275.2,6.9707.31,10.56678.31a163.136,163.136,0,0,0,30.58394-2.78,113.15156,113.15156,0,0,0,15.50933-4.08c.4601-1.12.90323-2.25,1.32931-3.4a143.88731,143.88731,0,0,0,8.27442-34.82c-.605-.32-1.21863-.63-1.85775-.92-13.1402,9.26-31.45306,15-51.70886,15a101.05777,101.05777,0,0,1-27.24345-3.66,136.12968,136.12968,0,0,1-15.43267,3.75A177.23129,177.23129,0,0,1,1071,1147.25808Z" transform="translate(-93.5 -316.45001)"/><path class="cls-27" d="M1188.34009,1130.0281c-16.5,16.04-37.56006,26.07-60.63013,27.15-1.38989.08-2.8.11-4.21.11-26.93994,0-51.4-12.18-69.44995-32.01.48.01.96.01,1.44995.01,26.79,0,48.5-7.39,48.5-16.5a7.2366,7.2366,0,0,0-2.09009-4.81H1101.9q-6.06.3-12.4.31a223.74133,223.74133,0,0,1-35.89-2.78,151.61947,151.61947,0,0,1-18.20008-4.08c-.53991-1.12-1.05993-2.25-1.55993-3.4a126.52189,126.52189,0,0,1-9.71-34.82c-.11-.82-.21008-1.64-.29992-2.47.80993.53,1.62988,1.05,2.48,1.55,15.41992,9.26,36.90991,15,60.67993,15a137.964,137.964,0,0,0,31.97-3.66,183.12793,183.12793,0,0,0,18.11011,3.75,242.99916,242.99916,0,0,0,34.91992,2.88v.03c0,9.76-14.71,18.35-37.01,23.36a181.40535,181.40535,0,0,1-19.21,3.19c2.86,9.17,13.38989,17.07,28.22,22.01a115.12061,115.12061,0,0,0,36,5.44Q1184.24512,1130.28811,1188.34009,1130.0281Z" transform="translate(-93.5 -316.45001)"/><path class="cls-19" d="M1129.5,1112.47852c-1.167,0-2.334-.01075-3.49121-.03028a242.155,242.155,0,0,1-34.85059-2.874c-5.64746-.88867-11.06836-1.97949-16.14355-3.248a100.07264,100.07264,0,0,0,28.63672-11.9834c7.05078,2.56934,12.53515,5.51075,16.30371,8.74512l.16406.14063.21484-.02344a127.15822,127.15822,0,0,1,13.666-.72656c14.02832,0,27.27344,2.18261,38.43652,6.32226A240.83978,240.83978,0,0,1,1129.5,1112.47852Z" transform="translate(-93.5 -316.45001)"/><path class="cls-19" d="M1103.71143,1094.89661c6.88183,2.52789,12.2351,5.41,15.91735,8.57031l.32862.282.43054-.04675A126.61479,126.61479,0,0,1,1134,1102.97809a112.86309,112.86309,0,0,1,36.49609,5.659,242.10052,242.10052,0,0,1-40.99609,3.341q-1.74627,0-3.48792-.03a241.56887,241.56887,0,0,1-34.77661-2.86792c-4.92956-.77551-9.687-1.70587-14.19275-2.77454a99.463,99.463,0,0,0,26.66871-11.409m-.12134-1.10852a99.91271,99.91271,0,0,1-30.62012,12.53,183.12793,183.12793,0,0,0,18.11011,3.75,242.99916,242.99916,0,0,0,34.91992,2.88c1.15991.02,2.33008.03,3.5.03a241.21065,241.21065,0,0,0,44.77-4.01c-11.07007-4.38-25.06006-6.99-40.27-6.99a127.2585,127.2585,0,0,0-13.72.73c-3.88-3.33-9.58008-6.35-16.68994-8.92Z" transform="translate(-93.5 -316.45001)"/><path class="cls-4" d="M1077,1080.25808v.03c0,9.76,12.5352,18.35,31.53836,23.36a133.78307,133.78307,0,0,0,16.36991,3.19q5.71368.765,11.81953,1.14h.00842c3.44275.2,6.9707.31,10.56678.31a163.136,163.136,0,0,0,30.58394-2.78,113.15156,113.15156,0,0,0,15.50933-4.08c.4601-1.12.90323-2.25,1.32931-3.4a143.88731,143.88731,0,0,0,8.27442-34.82c-.605-.32-1.21863-.63-1.85775-.92-13.1402,9.26-31.45306,15-51.70886,15a101.05777,101.05777,0,0,1-27.24345-3.66,136.12968,136.12968,0,0,1-15.43267,3.75A177.23129,177.23129,0,0,1,1077,1080.25808Z" transform="translate(-93.5 -316.45001)"/><path class="cls-4" d="M995,1169.25808v.03c0,9.76,12.5352,18.35,31.53836,23.36a133.78307,133.78307,0,0,0,16.36991,3.19q5.71368.765,11.81953,1.14h.00842c3.44275.2,6.9707.31,10.56678.31a163.136,163.136,0,0,0,30.58394-2.78,113.15156,113.15156,0,0,0,15.50933-4.08c.4601-1.12.90323-2.25,1.32931-3.4a143.88731,143.88731,0,0,0,8.27442-34.82c-.605-.32-1.21863-.63-1.85775-.92-13.1402,9.26-31.45306,15-51.70886,15a101.05777,101.05777,0,0,1-27.24345-3.66,136.12968,136.12968,0,0,1-15.43267,3.75A177.23129,177.23129,0,0,1,995,1169.25808Z" transform="translate(-93.5 -316.45001)"/><path class="cls-27" d="M1197.34009,1171.0281c-16.5,16.04-37.56006,26.07-60.63013,27.15-1.38989.08-2.8.11-4.21.11-26.93994,0-51.4-12.18-69.44995-32.01.48.01.96.01,1.44995.01,26.79,0,48.5-7.39,48.5-16.5a7.2366,7.2366,0,0,0-2.09009-4.81H1110.9q-6.06.3-12.4.31a223.74133,223.74133,0,0,1-35.89-2.78,151.61947,151.61947,0,0,1-18.20008-4.08c-.53991-1.12-1.05993-2.25-1.55993-3.4a126.52189,126.52189,0,0,1-9.71-34.82c-.11-.82-.21008-1.64-.29992-2.47.80993.53,1.62988,1.05,2.48,1.55,15.41992,9.26,36.90991,15,60.67993,15a137.964,137.964,0,0,0,31.97-3.66,183.12793,183.12793,0,0,0,18.11011,3.75,242.99916,242.99916,0,0,0,34.91992,2.88v.03c0,9.76-14.71,18.35-37.01,23.36a181.40535,181.40535,0,0,1-19.21,3.19c2.86,9.17,13.38989,17.07,28.22,22.01a115.12061,115.12061,0,0,0,36,5.44Q1193.24512,1171.28811,1197.34009,1171.0281Z" transform="translate(-93.5 -316.45001)"/><path class="cls-19" d="M1085.04,1173.48145a242.605,242.605,0,0,1-34.16895-2.50684c-1.14843-.1582-2.30371-.32715-3.457-.50586a240.8387,240.8387,0,0,1-41.86328-10.21973,99.29106,99.29106,0,0,1,19.73633-1.86816,125.68219,125.68219,0,0,1,19.21387,1.51562,127.07189,127.07189,0,0,1,13.39355,2.81543l.209.05567.18457-.11426c4.2207-2.61816,10.09179-4.68457,17.45117-6.1416a100.01229,100.01229,0,0,0,26.46,16.23535c-5.209.47461-10.73242.72168-16.45117.7334Z" transform="translate(-93.5 -316.45001)"/><path class="cls-19" d="M1075.59473,1157.05084a99.45959,99.45959,0,0,0,24.6029,15.36487c-4.61633.36481-9.46045.55444-14.45154.56464l-.70654.00116a242.22908,242.22908,0,0,1-34.10217-2.50238c-1.14368-.15735-2.29578-.32611-3.44617-.5047a242.10073,242.10073,0,0,1-39.99615-9.58912,100.624,100.624,0,0,1,17.79022-1.50433,125.24,125.24,0,0,1,19.13965,1.50971,126.60922,126.60922,0,0,1,13.33984,2.80352l.41834.11225.36792-.22827c4.12353-2.558,9.85546-4.5849,17.0437-6.02735m.28991-1.07678c-7.41992,1.449-13.51574,3.5589-17.86071,6.25433a128.90685,128.90685,0,0,0-32.73865-4.34741,98.3546,98.3546,0,0,0-21.57257,2.25171,241.20461,241.20461,0,0,0,43.62506,10.8299c1.15613.1795,2.314.34906,3.46326.5072a243.5803,243.5803,0,0,0,34.23852,2.51172c.23731,0,.47339-.00037.70984-.00116a183.15769,183.15769,0,0,0,18.47107-.92768,99.91225,99.91225,0,0,1-28.33582-17.07861Z" transform="translate(-93.5 -316.45001)"/><path class="cls-19" d="M970,1019.25808v.03c0,9.76,12.5352,18.35,31.53836,23.36a133.78307,133.78307,0,0,0,16.36991,3.19q5.71368.765,11.81953,1.14h.00842c3.44275.2,6.9707.31,10.56678.31a163.136,163.136,0,0,0,30.58394-2.78,113.15156,113.15156,0,0,0,15.50933-4.08c.4601-1.12.90323-2.25,1.32931-3.4a143.88731,143.88731,0,0,0,8.27442-34.82c-.605-.32-1.21863-.63-1.85775-.92-13.1402,9.26-31.45306,15-51.70886,15a101.05777,101.05777,0,0,1-27.24345-3.66,136.12968,136.12968,0,0,1-15.43267,3.75A177.23129,177.23129,0,0,1,970,1019.25808Z" transform="translate(-93.5 -316.45001)"/><path class="cls-19" d="M1193,1051.25808v.03c0,9.76-12.5352,18.35-31.53836,23.36a133.78307,133.78307,0,0,1-16.36991,3.19q-5.71368.765-11.81953,1.14h-.00842c-3.44275.2-6.9707.31-10.56678.31a163.136,163.136,0,0,1-30.58394-2.78,113.15156,113.15156,0,0,1-15.50933-4.08c-.4601-1.12-.90323-2.25-1.32931-3.4a143.88731,143.88731,0,0,1-8.27442-34.82c.605-.32,1.21863-.63,1.85775-.92,13.1402,9.26,31.45306,15,51.70886,15a101.05777,101.05777,0,0,0,27.24345-3.66,136.12968,136.12968,0,0,0,15.43267,3.75A177.23129,177.23129,0,0,0,1193,1051.25808Z" transform="translate(-93.5 -316.45001)"/><path class="cls-4" d="M951.2209,1082.15066a49.43954,49.43954,0,0,1,40.15207-5.04134c1.29446.38315,2.55554.80856,3.79009,1.28874l.04542-.15345c3.701-12.50374,15.22328-21.48273,31.08435-26.05923a99.91266,99.91266,0,0,1,32.91721-3.32406c16.84188,10.22033,28.10478,21.35491,30.85745,31.22193a15.18712,15.18712,0,0,1,.10041,8.53964c-4.28287,14.46949-32.056,19.72289-67.77765,14.72895a240.487,240.487,0,0,1-26.5399-5.29011q-4.65363-1.18974-9.39054-2.59183A248.57944,248.57944,0,0,1,951.2209,1082.15066Z" transform="translate(-93.5 -316.45001)"/><path class="cls-27" d="M975.65991,1050.0281c16.5,16.04,37.56006,26.07,60.63013,27.15,1.38989.08,2.8.11,4.21.11,26.93994,0,51.4-12.18,69.44995-32.01-.48.01-.96.01-1.44995.01-26.79,0-48.5-7.39-48.5-16.5a7.2366,7.2366,0,0,1,2.09009-4.81H1062.1q6.06.3,12.4.31a223.74133,223.74133,0,0,0,35.89-2.78,151.61947,151.61947,0,0,0,18.20008-4.08c.53991-1.12,1.05993-2.25,1.55993-3.4a126.52189,126.52189,0,0,0,9.71-34.82c.11-.82.21008-1.64.29992-2.47-.80993.53-1.62988,1.05-2.48,1.55-15.41992,9.26-36.90991,15-60.67993,15a137.964,137.964,0,0,1-31.97-3.66,183.12793,183.12793,0,0,1-18.11011,3.75A242.99916,242.99916,0,0,1,992,996.25808v.03c0,9.76,14.71,18.35,37.01,23.36a181.40535,181.40535,0,0,0,19.21,3.19c-2.86,9.17-13.38989,17.07-28.22,22.01a115.12061,115.12061,0,0,1-36,5.44Q979.75488,1050.28811,975.65991,1050.0281Z" transform="translate(-93.5 -316.45001)"/><path class="cls-4" d="M1181.73269,1025.15066a49.43954,49.43954,0,0,0-40.15207-5.04134c-1.29446.38315-2.55554.80856-3.79009,1.28874l-.04542-.15345c-3.701-12.50374-15.22328-21.48273-31.08435-26.05923a99.91266,99.91266,0,0,0-32.91721-3.32406c-16.84188,10.22033-28.10478,21.35491-30.85744,31.22193a15.187,15.187,0,0,0-.10042,8.53964c4.28287,14.46949,32.056,19.72289,67.77765,14.72895a240.487,240.487,0,0,0,26.5399-5.29011q4.65363-1.18974,9.39054-2.59183A248.57944,248.57944,0,0,0,1181.73269,1025.15066Z" transform="translate(-93.5 -316.45001)"/><path class="cls-19" d="M1135.5,1022.478c-1.167,0-2.334-.00977-3.49121-.02979a242.06191,242.06191,0,0,1-34.85059-2.874c-5.64746-.88867-11.06836-1.979-16.14355-3.248a100.02579,100.02579,0,0,0,28.63672-11.98388c7.0498,2.56835,12.53418,5.51025,16.30371,8.74511l.16406.14112.21484-.02344a127.11672,127.11672,0,0,1,13.666-.727c14.02832,0,27.27246,2.18261,38.43652,6.32324A240.8714,240.8714,0,0,1,1135.5,1022.478Z" transform="translate(-93.5 -316.45001)"/><path class="cls-19" d="M1109.71143,1004.89661c6.88183,2.52789,12.2351,5.41,15.91735,8.57031l.32862.282.43054-.04675A126.61479,126.61479,0,0,1,1140,1012.97809a112.86309,112.86309,0,0,1,36.49609,5.659,242.10052,242.10052,0,0,1-40.99609,3.341q-1.74627,0-3.48792-.03a241.56887,241.56887,0,0,1-34.77661-2.86792c-4.92956-.77551-9.687-1.70587-14.19275-2.77454a99.463,99.463,0,0,0,26.66871-11.409m-.12134-1.10852a99.91271,99.91271,0,0,1-30.62012,12.53,183.12793,183.12793,0,0,0,18.11011,3.75,242.99916,242.99916,0,0,0,34.91992,2.88c1.15991.02,2.33008.03,3.5.03a241.21065,241.21065,0,0,0,44.77-4.01c-11.07007-4.38-25.06006-6.99-40.27-6.99a127.2585,127.2585,0,0,0-13.72.73c-3.88-3.33-9.58008-6.35-16.68994-8.92Z" transform="translate(-93.5 -316.45001)"/><path class="cls-19" d="M970,1108.25808v.03c0,9.76,12.5352,18.35,31.53836,23.36a133.78307,133.78307,0,0,0,16.36991,3.19q5.71368.765,11.81953,1.14h.00842c3.44275.2,6.9707.31,10.56678.31a163.136,163.136,0,0,0,30.58394-2.78,113.15156,113.15156,0,0,0,15.50933-4.08c.4601-1.12.90323-2.25,1.32931-3.4a143.88731,143.88731,0,0,0,8.27442-34.82c-.605-.32-1.21863-.63-1.85775-.92-13.1402,9.26-31.45306,15-51.70886,15a101.05777,101.05777,0,0,1-27.24345-3.66,136.12968,136.12968,0,0,1-15.43267,3.75A177.23129,177.23129,0,0,1,970,1108.25808Z" transform="translate(-93.5 -316.45001)"/><path class="cls-19" d="M973,995.25808v.03c0,9.76,12.5352,18.35,31.53836,23.36a133.78307,133.78307,0,0,0,16.36991,3.19q5.71368.765,11.81953,1.14h.00842c3.44275.2,6.9707.31,10.56678.31a163.136,163.136,0,0,0,30.58394-2.78,113.15156,113.15156,0,0,0,15.50933-4.08c.4601-1.12.90323-2.25,1.32931-3.4a143.88731,143.88731,0,0,0,8.27442-34.82c-.605-.32-1.21863-.63-1.85775-.92-13.1402,9.26-31.45306,15-51.70886,15a101.05777,101.05777,0,0,1-27.24345-3.66,136.12968,136.12968,0,0,1-15.43267,3.75A177.23129,177.23129,0,0,1,973,995.25808Z" transform="translate(-93.5 -316.45001)"/><polygon class="cls-5" points="922.5 1077.028 950.5 994.028 924 994.528 897 1077.528 922.5 1077.028"/><path class="cls-7" d="M603.38754,723.14563a45.07112,45.07112,0,0,1,.046-5.54493,29.16488,29.16488,0,0,0,.47659-5.61009,1.54271,1.54271,0,0,0-1.5-1.5,1.51027,1.51027,0,0,0-1.5,1.5,29.336,29.336,0,0,1-.47659,5.61009,45.4037,45.4037,0,0,0-.046,5.54493,1.5,1.5,0,0,0,3,0Z" transform="translate(-93.5 -316.45001)"/><path class="cls-7" d="M600.46452,710.5231a31.03933,31.03933,0,0,1-.6742,4.46614l-.85972,4.72752a1.50038,1.50038,0,0,0,2.89284.79751l.89343-4.9129a34.86971,34.86971,0,0,0,.74765-5.07827,1.51242,1.51242,0,0,0-1.5-1.5,1.53038,1.53038,0,0,0-1.5,1.5Z" transform="translate(-93.5 -316.45001)"/><path class="cls-7" d="M599.1769,710.76512c.28947,3.7973-1.44315,7.4212-1.901,11.16531a1.50822,1.50822,0,0,0,1.5,1.5,1.53686,1.53686,0,0,0,1.5-1.5c.459-3.75328,2.19568-7.30021,1.901-11.16531a1.5373,1.5373,0,0,0-1.5-1.5,1.51216,1.51216,0,0,0-1.5,1.5Z" transform="translate(-93.5 -316.45001)"/><path class="cls-7" d="M601.27261,710.68672,601.0373,721.925a1.5,1.5,0,0,0,3,0l.23531-11.23828a1.5,1.5,0,0,0-3,0Z" transform="translate(-93.5 -316.45001)"/><path class="cls-7" d="M602.13924,710.76754a73.37236,73.37236,0,0,0,.7723,12.03757,1.50979,1.50979,0,0,0,1.84518,1.04766,1.539,1.539,0,0,0,1.04766-1.84517,68.62559,68.62559,0,0,1-.66514-11.24006c.03965-1.93125-2.96036-1.931-3,0Z" transform="translate(-93.5 -316.45001)"/><ellipse class="cls-1" cx="814.5" cy="301.09691" rx="100.25" ry="44.96368"/><circle class="cls-2" cx="807.03998" cy="277.29245" r="39.46002"/><ellipse class="cls-1" cx="854.51836" cy="271.62896" rx="33.96162" ry="29.48397"/><circle class="cls-2" cx="743.03998" cy="255.52595" r="39.46002"/><ellipse class="cls-2" cx="706.23001" cy="294.98597" rx="51.73001" ry="35.41907"/><ellipse class="cls-1" cx="729.86819" cy="292.91597" rx="90.9375" ry="29.30813"/><ellipse class="cls-1" cx="670.5" cy="317.02409" rx="40.72" ry="13.38096"/><ellipse class="cls-2" cx="865.18716" cy="293.94995" rx="107.22714" ry="29.30813"/><ellipse class="cls-1" cx="675.3182" cy="276.9888" rx="40.72" ry="13.38096"/><ellipse class="cls-1" cx="746.14" cy="319.38598" rx="52.36" ry="24.40001"/><ellipse class="cls-2" cx="676.32" cy="312.93362" rx="69.82" ry="30.16953"/><path class="cls-2" d="M476.53,453.94c0,21.22-12.41,40.11-31.72,52.25-14.01,8.8-31.64,14.05-50.81,14.05-19.37,0-37.17-5.36-51.25-14.33-11.69-7.45-20.8-17.38-26.1-28.81a54.748,54.748,0,0,1-2.83-7.4,53.98407,53.98407,0,0,1-2.35-15.76c0-12.95,4.62006-25.03,12.61005-35.24,12.36-15.8,32.78-27.11,56.63-30.21a53.95347,53.95347,0,0,1,2.35,15.77c0,23.48-15.19,44.11-38.11,55.88,9.18,8.44,20.63,13.45,33.05,13.45,19.6,0,36.79-12.48,46.45-31.24a44.22681,44.22681,0,0,0,48.14-8.69A54.32781,54.32781,0,0,1,476.53,453.94Z" transform="translate(-93.5 -316.45001)"/><path class="cls-1" d="M442,357.59a43.93666,43.93666,0,0,0-22.66,6.25c-10.03-14-24.83-22.86-41.34-22.86a46.00868,46.00868,0,0,0-17.12,3.31A44.16855,44.16855,0,0,1,364,360.64c0,.41-.01.82-.01,1.22a62.50087,62.50087,0,0,1,16.72,26.63,53.95347,53.95347,0,0,1,2.35,15.77c0,23.48-15.19,44.11-38.11,55.88,9.18,8.44,20.63,13.45,33.05,13.45,19.6,0,36.79-12.48,46.45-31.24A44.19573,44.19573,0,1,0,442,357.59Z" transform="translate(-93.5 -316.45001)"/><path class="cls-2" d="M383.06,404.26c0,23.48-15.19,44.11-38.11,55.88-10.8-9.92-18.46-24.59-20.87-41.44a80.78946,80.78946,0,0,1-.81-11.42c0-.87.01-1.73.05-2.59.72-22.81,10.95-42.67,26.03-53.9a50.01444,50.01444,0,0,1,11.53-6.5A44.16855,44.16855,0,0,1,364,360.64c0,.41-.01.82-.01,1.22a62.50087,62.50087,0,0,1,16.72,26.63A53.95347,53.95347,0,0,1,383.06,404.26Z" transform="translate(-93.5 -316.45001)"/><ellipse class="cls-2" cx="251.50397" cy="190.63056" rx="99.84865" ry="31.26057"/><ellipse class="cls-2" cx="188.5" cy="172.38598" rx="79.51434" ry="26.46251"/><ellipse class="cls-2" cx="140.5" cy="129.9888" rx="74.63263" ry="26.60859"/><path class="cls-1" d="M364,360.63937c0,.41-.00972.81993-.00972,1.22-.602,22.65964-17.76763,41.06941-39.48686,42.82939-1.12629.09-2.26224.13995-3.40791.13995-23.69021,0-42.90448-19.78969-42.90448-44.18929a45.11828,45.11828,0,0,1,5.0293-20.77973A42.75963,42.75963,0,0,1,321.09551,316.45c18.08805,0,33.56435,11.51979,39.87526,27.83956A45.33031,45.33031,0,0,1,364,360.63937Z" transform="translate(-93.5 -316.45001)"/><path class="cls-2" d="M383.06,404.26c0,23.48-15.19,44.11-38.11,55.88a91.52656,91.52656,0,0,1-17.82,6.9h-.01a98.4421,98.4421,0,0,1-13.3,2.66,102.92416,102.92416,0,0,1-36.09-1.7,95.00641,95.00641,0,0,1-15.12-4.84,82.96209,82.96209,0,0,1-23.32-14.46c-8.96-7.96-15.55-17.67-18.86-28.43A53.91182,53.91182,0,0,1,218,404.26c0-16.61,7.6-31.79,20.15-43.42,11.00995-10.19,25.81-17.66,42.65-20.98a101.71938,101.71938,0,0,1,19.73-1.91,96.21358,96.21358,0,0,1,48.82,12.84,78.59949,78.59949,0,0,1,14.64,11.07,62.50087,62.50087,0,0,1,16.72,26.63A53.95347,53.95347,0,0,1,383.06,404.26Z" transform="translate(-93.5 -316.45001)"/><ellipse class="cls-2" cx="283.24263" cy="137.97966" rx="68.10999" ry="52.6509"/></svg>