<svg width="64" height="19" viewBox="0 0 110 32" xmlns="http://www.w3.org/2000/svg"><g fill="none" fill-rule="evenodd"><path d="M13.982 6.982h-4.51a9.542 9.542 0 0 0-5.817 1.6 9.542 9.542 0 0 0-3.2 7.709 9.862 9.862 0 0 0 2.472 6.982c1.6 1.454 3.346 2.036 6.837 2.036H18.2V.145h-4.364l.146 6.837zm0 15.127H9.764c-3.346 0-4.946-1.89-4.946-5.964 0-4.072 1.891-5.672 5.237-5.672h3.927v11.636zM40.455 6.982h-3.346v3.345h3.346v9.018c0 2.764.436 3.928 1.454 4.946 1.018 1.018 2.036 1.164 4.364 1.164h3.636v-3.346h-2.036c-2.473 0-3.055-.436-3.055-3.345v-8.437h5.091V6.982h-5.09V.145H40.6l-.145 6.837z" fill="#900" fill-rule="nonzero"/><path d="M51.073 6.982v24.873h4.218v-6.4h3.927c3.637 0 5.091-.437 6.691-2.037a10.284 10.284 0 0 0 2.618-7.273 10.4 10.4 0 0 0-2.618-7.418c-1.6-1.454-3.2-1.89-6.69-1.89l-8.146.145zm4.218 3.345h3.636c3.637 0 5.237 1.891 5.237 5.673a6.327 6.327 0 0 1-1.455 4.8 5.818 5.818 0 0 1-4.073 1.31h-3.345V10.326zm21.236 3.928a10.313 10.313 0 0 0-4.363.581 5.15 5.15 0 0 0-2.91 5.091 5.542 5.542 0 0 0 2.037 4.51c1.164.872 2.182 1.018 5.964 1.018H87.29v-11.2c0-2.91-.291-4.219-1.455-5.528-1.163-1.309-2.618-1.89-6.545-1.89h-9.018v3.345h8.582c2.181 0 2.909.29 3.49 1.018.518.822.724 1.803.582 2.764h-6.4v.29zm6.4 3.345v4.51h-5.963c-2.328 0-3.2-.583-3.2-2.183a2.24 2.24 0 0 1 1.163-2.182 5.396 5.396 0 0 1 2.037-.29l5.963.145zm17.6 4.655h-4.509c-2.618 0-3.345-1.019-3.345-4.655V7.127h-4.364V17.31c0 3.636.291 4.8 1.31 6.11 1.308 1.6 2.908 2.181 5.963 2.181h4.8c-.146 1.455-.146 1.89-.727 2.327-.582.437-1.019.437-2.91.437H88.31v3.345h8.582c3.345 0 4.8-.436 6.109-1.6a9.324 9.324 0 0 0 1.89-6.4V7.127h-4.217l-.146 15.128z" fill="#000" fill-rule="nonzero"/><path d="M30.418 12.364c-.145-.146-.145-.146-.29-.146h-3.2c-.146 0-.146 0-.292.146-.145.145-.145.145-.145.29v2.764h4.073v-2.763a.45.45 0 0 1-.146-.291z"/><path d="M30.418 12.364c-.145-.146-.145-.146-.29-.146h-3.2c-.146 0-.146 0-.292.146-.145.145-.145.145-.145.29v2.764h4.073v-2.763a.45.45 0 0 1-.146-.291z"/><path d="M30.127 12.218h-3.2c-.145 0-.145 0-.29.146-.146.145-.146.145-.146.29v2.764h4.073v-2.763a.51.51 0 0 0-.146-.291c-.145-.146-.145-.146-.29-.146z"/><path d="M30.127 12.218h-3.2c-.145 0-.145 0-.29.146-.146.145-.146.145-.146.29v2.764h4.073v-2.763a.51.51 0 0 0-.146-.291c-.145-.146-.145-.146-.29-.146z"/><path d="M32.018 15.564v-2.91a1.716 1.716 0 0 0-1.89-1.745h-3.2a1.775 1.775 0 0 0-1.746 1.746v2.909a1.15 1.15 0 0 0-.727 1.163v3.782c0 .723.586 1.31 1.309 1.31h5.818a1.31 1.31 0 0 0 1.309-1.31v-3.782a1.905 1.905 0 0 0-.873-1.163zm-1.6-.146h-3.927v-2.763a.51.51 0 0 1 .145-.291c.146-.146.146-.146.291-.146h3.2c.146 0 .146 0 .291.146.146.145.146.145.146.29l-.146 2.764z"/><path d="M32.018 15.564v-2.91a1.716 1.716 0 0 0-1.89-1.745h-3.2a1.775 1.775 0 0 0-1.746 1.746v2.909a1.15 1.15 0 0 0-.727 1.163v3.782c0 .723.586 1.31 1.309 1.31h5.818a1.31 1.31 0 0 0 1.309-1.31v-3.782a1.905 1.905 0 0 0-.873-1.163zm-1.6-.146h-3.927v-2.763a.51.51 0 0 1 .145-.291c.146-.146.146-.146.291-.146h3.2c.146 0 .146 0 .291.146.146.145.146.145.146.29l-.146 2.764z"/><path d="M31.873 15.564v-2.91a1.716 1.716 0 0 0-1.891-1.745h-3.2a1.905 1.905 0 0 0-1.891 1.746v2.909a1.15 1.15 0 0 0-.727 1.163v3.782c0 .723.586 1.31 1.309 1.31h5.818a1.31 1.31 0 0 0 1.309-1.31v-3.782a1.09 1.09 0 0 0-.727-1.163zm-1.455-.146h-3.927v-2.763a.51.51 0 0 1 .145-.291c.146-.146.146-.146.291-.146h3.2c.146 0 .146 0 .291.146.146.145.146.145.146.29l-.146 2.764z"/><path d="M30.127 12.218h-3.2c-.145 0-.145 0-.29.146-.146.145-.146.145-.146.29v2.764h4.073v-2.763a.51.51 0 0 0-.146-.291c-.145-.146-.145-.146-.29-.146z" fill="#900" fill-rule="nonzero"/><path d="M28.527 7.127a9.164 9.164 0 1 0 9.164 9.164 9.12 9.12 0 0 0-9.164-9.164zm4.218 13.382a1.31 1.31 0 0 1-1.309 1.31h-5.818a1.31 1.31 0 0 1-1.309-1.31v-3.782a1.15 1.15 0 0 1 .727-1.163v-2.91a1.804 1.804 0 0 1 1.746-1.89h3.345a1.92 1.92 0 0 1 1.891 1.89v2.91c.473.184.769.657.727 1.163v3.782z" fill="#900" fill-rule="nonzero"/><path d="M107.364.29a2.618 2.618 0 1 1 0 5.237A2.735 2.735 0 0 1 104.6 2.91a2.633 2.633 0 0 1 2.764-2.618zm0 .437a2.08 2.08 0 0 0-2.037 2.037 1.993 1.993 0 0 0 2.037 2.036 2.08 2.08 0 0 0 2.036-2.036 1.993 1.993 0 0 0-2.036-2.037zm-.437 3.346h-.582V1.6c.323-.13.672-.18 1.019-.145.436 0 .727.145 1.018.145.18.14.286.354.29.582a.625.625 0 0 1-.581.582c.29.145.436.29.436.581.074.187.123.383.146.582h-.582c-.146-.145-.146-.29-.146-.582 0-.29-.145-.436-.581-.436h-.291l-.146 1.164zm0-1.455h.291c.291 0 .582-.145.582-.436 0-.291-.145-.437-.582-.437h-.29v.873z" fill="#000" fill-rule="nonzero"/></g></svg>
