<svg id="Layer_1" data-name="Layer 1" xmlns="http://www.w3.org/2000/svg" width="2367.54004" height="576.5" viewBox="0 0 2367.54004 576.5"><defs><style>.cls-1,.cls-2,.cls-3,.cls-4,.cls-5,.cls-6{fill:#fff;}.cls-2,.cls-4,.cls-5,.cls-6{stroke:#fff;}.cls-2,.cls-3,.cls-4,.cls-5,.cls-6{stroke-miterlimit:10;}.cls-3{stroke:#000;}.cls-3,.cls-5{stroke-width:0.25px;}.cls-4{stroke-width:62px;}.cls-6{stroke-width:64px;}</style></defs><title>NarrativLogosW</title><path class="cls-1" d="M526.02551,779.96973a31.5358,31.5358,0,0,1-31.50049-31.5v-128a31.5358,31.5358,0,0,1,31.50049-31.5h96.5v-65h-96.5a31.5,31.5,0,1,1,0-63h128a31.5357,31.5357,0,0,1,31.5,31.5v256a31.5357,31.5357,0,0,1-31.5,31.5Zm31.5-63h65v-65h-65Z" transform="translate(-46.03003 -204.46997)"/><path class="cls-1" d="M654.025,461.47a31.03509,31.03509,0,0,1,31,31v256a31.03508,31.03508,0,0,1-31,31h-128a31.03509,31.03509,0,0,1-31-31v-128a31.03509,31.03509,0,0,1,31-31h97v-66h-97a31,31,0,0,1,0-62h128m-97,256h66v-66h-66v66m97-257h-128a32,32,0,0,0,0,64h96v64h-96a32.004,32.004,0,0,0-32,32v128a32.00393,32.00393,0,0,0,32,32h128a32.00393,32.00393,0,0,0,32-32v-256a32.004,32.004,0,0,0-32-32Zm-96,256v-64h64v64Z" transform="translate(-46.03003 -204.46997)"/><path class="cls-1" d="M782.02,779.96973a31.5357,31.5357,0,0,1-31.5-31.5v-256a31.5357,31.5357,0,0,1,31.5-31.5h128a31.5,31.5,0,1,1,0,63h-96.5v224.5A31.5357,31.5357,0,0,1,782.02,779.96973Z" transform="translate(-46.03003 -204.46997)"/><path class="cls-1" d="M910.02,461.47a31,31,0,0,1,0,62h-97v225a31,31,0,0,1-62,0v-256a31.03513,31.03513,0,0,1,31-31h128m0-1h-128a32.004,32.004,0,0,0-32,32v256a32,32,0,0,0,64,0v-224h96a32,32,0,0,0,0-64Z" transform="translate(-46.03003 -204.46997)"/><circle class="cls-2" cx="1887.04004" cy="160" r="32"/><path class="cls-1" d="M78.03027,780.34473a31.9108,31.9108,0,0,1-31.875-31.875v-512a31.875,31.875,0,1,1,63.75,0v512A31.91079,31.91079,0,0,1,78.03027,780.34473Z" transform="translate(-46.03003 -204.46997)"/><path d="M78.03,204.72a31.80073,31.80073,0,0,1,30.03,21.4117v.01016l.01364.03957A31.503,31.503,0,0,1,109.78,236.47v512a31.75,31.75,0,0,1-63.5,0v-512a31.786,31.786,0,0,1,31.75-31.75m0-.25a31.99754,31.99754,0,0,0-32,32v512a32,32,0,0,0,64,0v-512a31.77388,31.77388,0,0,0-1.72-10.37v-.01a32.05044,32.05044,0,0,0-30.28-21.62Z" transform="translate(-46.03003 -204.46997)"/><path class="cls-1" d="M428.04,737.35l-6.83-10.92A31.84951,31.84951,0,0,1,428.04,737.35Z" transform="translate(-46.03003 -204.46997)"/><path d="M421.21,726.43l6.83,10.92a31.84951,31.84951,0,0,0-6.83-10.92Z" transform="translate(-46.03003 -204.46997)"/><path class="cls-3" d="M100.65428,213.84377" transform="translate(-46.03003 -204.46997)"/><path class="cls-1" d="M78.03027,779.96973a31.5357,31.5357,0,0,1-31.5-31.5v-512a31.50989,31.50989,0,0,1,61.27979-10.29639l.02734.08984a31.24019,31.24019,0,0,1,1.69287,10.20655v512A31.5357,31.5357,0,0,1,78.03027,779.96973Z" transform="translate(-46.03003 -204.46997)"/><path class="cls-1" d="M78.03,205.47a31.05135,31.05135,0,0,1,29.28,20.788v.00951l.05454.15838A30.75214,30.75214,0,0,1,109.03,236.47v512a31,31,0,0,1-62,0v-512a31.03511,31.03511,0,0,1,31-31m0-1a31.99753,31.99753,0,0,0-32,32v512a32,32,0,0,0,64,0v-512a31.77177,31.77177,0,0,0-1.72-10.37v-.01a32.05044,32.05044,0,0,0-30.28-21.62Z" transform="translate(-46.03003 -204.46997)"/><path class="cls-3" d="M412.74,712.89a31.99729,31.99729,0,0,1-33.82-54.08Z" transform="translate(-46.03003 -204.46997)"/><path class="cls-3" d="M398.02686,748.47" transform="translate(-46.03003 -204.46997)"/><line class="cls-4" x1="32" y1="32" x2="351.99683" y2="544"/><path class="cls-1" d="M398.03027,779.96973a31.61868,31.61868,0,0,1-28.44873-17.9834l-.05224-.09278a31.49839,31.49839,0,0,1,28.501-44.92382,32.49342,32.49342,0,0,0,14.94092-3.63672l.48-.25-34.395-54.998-.43457.32324a32.65238,32.65238,0,0,0-12.09131,18.1045v-440.043a31.5,31.5,0,0,1,63,0V739.93066l-1.02148-2.75488a32.16193,32.16193,0,0,0-6.937-11.0918l-3.38379-3.543,11.34228,18.13378v7.79493A31.5357,31.5357,0,0,1,398.03027,779.96973Z" transform="translate(-46.03003 -204.46997)"/><path class="cls-1" d="M398.03,205.47a31.0351,31.0351,0,0,1,31,31V737.14386l-.05246-.14148a32.64987,32.64987,0,0,0-7.04431-11.263l-6.76584-7.08478,5.19476,8.30567,6.82993,10.92,1.83792,2.9386V748.47a30.99709,30.99709,0,0,1-58.9964,13.3017l-.02106-.04438-.0253-.04211-.00445-.00738A30.99626,30.99626,0,0,1,398.03,717.47a32.98945,32.98945,0,0,0,15.1716-3.69287l.96-.4997-.57385-.9176-33.82-54.08008-.57507-.91961-.87.64776A33.10556,33.10556,0,0,0,367.03,673.204V236.47a31.03509,31.03509,0,0,1,31-31m0-1a31.99753,31.99753,0,0,0-32,32v448a31.92479,31.92479,0,0,1,12.88992-25.66l33.82,54.08008A31.78821,31.78821,0,0,1,398.03,716.47,32.00274,32.00274,0,0,0,369.1,762.15l.03009.05011a31.99709,31.99709,0,0,0,60.9-13.7301v-512a32.004,32.004,0,0,0-32-32ZM428.04,737.35,421.21,726.43A31.84853,31.84853,0,0,1,428.04,737.35Z" transform="translate(-46.03003 -204.46997)"/><polyline class="cls-5" points="320 544 320 492.8 320 480"/><path class="cls-1" d="M526.02,779.96973a31.5357,31.5357,0,0,1-31.5-31.5v-128a31.5357,31.5357,0,0,1,31.5-31.5h96.5v-65h-96.5a31.5,31.5,0,0,1,0-63h128a31.5357,31.5357,0,0,1,31.5,31.5v256a31.5357,31.5357,0,0,1-31.5,31.5Zm31.5-63h65v-65h-65Z" transform="translate(-46.03003 -204.46997)"/><path class="cls-1" d="M654.02,461.47a31.03513,31.03513,0,0,1,31,31v256a31.03513,31.03513,0,0,1-31,31h-128a31.03512,31.03512,0,0,1-31-31v-128a31.03513,31.03513,0,0,1,31-31h97v-66h-97a31,31,0,0,1,0-62h128m-97,256h66v-66h-66v66m97-257h-128a32,32,0,0,0,0,64h96v64h-96a32.004,32.004,0,0,0-32,32v128a32.00393,32.00393,0,0,0,32,32h128a32.004,32.004,0,0,0,32-32v-256a32.004,32.004,0,0,0-32-32Zm-96,256v-64h64v64Z" transform="translate(-46.03003 -204.46997)"/><path class="cls-1" d="M1294.02051,779.96973a31.5358,31.5358,0,0,1-31.50049-31.5v-128a31.5358,31.5358,0,0,1,31.50049-31.5h96.5v-65h-96.5a31.5,31.5,0,1,1,0-63h128a31.5357,31.5357,0,0,1,31.5,31.5v256a31.5357,31.5357,0,0,1-31.5,31.5Zm31.5-63h65v-65h-65Z" transform="translate(-46.03003 -204.46997)"/><path class="cls-1" d="M1422.02,461.47a31.03509,31.03509,0,0,1,31,31v256a31.03508,31.03508,0,0,1-31,31h-128a31.03508,31.03508,0,0,1-31-31v-128a31.03509,31.03509,0,0,1,31-31h97v-66h-97a31,31,0,0,1,0-62h128m-97,256h66v-66h-66v66m97-257h-128a32,32,0,0,0,0,64h96v64h-96a32.004,32.004,0,0,0-32,32v128a32.00393,32.00393,0,0,0,32,32h128a32.00393,32.00393,0,0,0,32-32v-256a32.004,32.004,0,0,0-32-32Zm-96,256v-64h64v64Z" transform="translate(-46.03003 -204.46997)"/><path class="cls-1" d="M1038.02,779.96973a31.5357,31.5357,0,0,1-31.5-31.5v-256a31.5357,31.5357,0,0,1,31.5-31.5h128a31.5,31.5,0,0,1,0,63h-96.5v224.5A31.5357,31.5357,0,0,1,1038.02,779.96973Z" transform="translate(-46.03003 -204.46997)"/><path class="cls-1" d="M1166.02,461.47a31,31,0,0,1,0,62h-97v225a31,31,0,0,1-62,0v-256a31.03513,31.03513,0,0,1,31-31h128m0-1h-128a32.004,32.004,0,0,0-32,32v256a32,32,0,0,0,64,0v-224h96a32,32,0,0,0,0-64Z" transform="translate(-46.03003 -204.46997)"/><path class="cls-1" d="M1678.01953,779.96973a31.5357,31.5357,0,0,1-31.5-31.5v-224.5h-96.5a31.5,31.5,0,0,1,.001-63l128,.00048a31.5357,31.5357,0,0,1,31.5,31.5l-.001,255.99952A31.5357,31.5357,0,0,1,1678.01953,779.96973Z" transform="translate(-46.03003 -204.46997)"/><path class="cls-1" d="M1678.02,461.47a31.03509,31.03509,0,0,1,31,31v256a31,31,0,1,1-62,0v-225h-97a31,31,0,0,1,0-62h128m0-1h-128a32,32,0,0,0,0,64h96v224a32,32,0,1,0,64,0v-256a32.004,32.004,0,0,0-32-32Z" transform="translate(-46.03003 -204.46997)"/><path class="cls-1" d="M1677.07227,779.96973a31.53569,31.53569,0,0,1-31.5-31.5V492.47021a31.53569,31.53569,0,0,1,31.5-31.5h128a31.49976,31.49976,0,1,1,0,62.99952h-96.5v224.5A31.5357,31.5357,0,0,1,1677.07227,779.96973Z" transform="translate(-46.03003 -204.46997)"/><path class="cls-1" d="M1805.07227,461.47a31,31,0,0,1,0,62h-97v225a31,31,0,0,1-62,0v-256a31.03509,31.03509,0,0,1,31-31h128m0-1h-128a32.004,32.004,0,0,0-32,32v256a32,32,0,0,0,64,0v-224h96a32,32,0,0,0,0-64Z" transform="translate(-46.03003 -204.46997)"/><path class="cls-1" d="M1677.07227,523.96973a31.53559,31.53559,0,0,1-31.5-31.49952v-256a31.5,31.5,0,1,1,63,0v224.5h96.5a31.49976,31.49976,0,1,1,0,62.99952Z" transform="translate(-46.03003 -204.46997)"/><path class="cls-1" d="M1677.07227,205.47a31.03508,31.03508,0,0,1,31,31v225h97a31,31,0,0,1,0,62h-128a31.03508,31.03508,0,0,1-31-31v-256a31.03507,31.03507,0,0,1,31-31m0-1a32.00393,32.00393,0,0,0-32,32v256a32.004,32.004,0,0,0,32,32h128a32,32,0,0,0,0-64h-96v-224a32.004,32.004,0,0,0-32-32Z" transform="translate(-46.03003 -204.46997)"/><path class="cls-1" d="M1933.07031,779.96973a31.5357,31.5357,0,0,1-31.5-31.5v-256a31.5,31.5,0,1,1,63,0v256A31.5357,31.5357,0,0,1,1933.07031,779.96973Z" transform="translate(-46.03003 -204.46997)"/><path class="cls-1" d="M1933.07007,461.47a31.03509,31.03509,0,0,1,31,31v256a31,31,0,0,1-62,0v-256a31.03509,31.03509,0,0,1,31-31m0-1a32.004,32.004,0,0,0-32,32v256a32,32,0,0,0,64,0v-256a31.99762,31.99762,0,0,0-32-32Z" transform="translate(-46.03003 -204.46997)"/><path class="cls-1" d="M1294.02051,779.96973a31.5358,31.5358,0,0,1-31.50049-31.5v-128a31.5358,31.5358,0,0,1,31.50049-31.5h96.5v-65h-96.5a31.5,31.5,0,1,1,0-63h128a31.5357,31.5357,0,0,1,31.5,31.5v256a31.5357,31.5357,0,0,1-31.5,31.5Zm31.5-63h65v-65h-65Z" transform="translate(-46.03003 -204.46997)"/><path class="cls-1" d="M1422.02,461.47a31.03509,31.03509,0,0,1,31,31v256a31.03508,31.03508,0,0,1-31,31h-128a31.03508,31.03508,0,0,1-31-31v-128a31.03509,31.03509,0,0,1,31-31h97v-66h-97a31,31,0,0,1,0-62h128m-97,256h66v-66h-66v66m97-257h-128a32,32,0,0,0,0,64h96v64h-96a32.004,32.004,0,0,0-32,32v128a32.00393,32.00393,0,0,0,32,32h128a32.00393,32.00393,0,0,0,32-32v-256a32.004,32.004,0,0,0-32-32Zm-96,256v-64h64v64Z" transform="translate(-46.03003 -204.46997)"/><path class="cls-2" d="M2093.07007,492.47a32,32,0,1,1-32-32A32.01064,32.01064,0,0,1,2093.07007,492.47Z" transform="translate(-46.03003 -204.46997)"/><line class="cls-6" x1="2079.04004" y1="544" x2="2015.03787" y2="288"/><path class="cls-6" d="M2189.06574,492.47" transform="translate(-46.03003 -204.46997)"/><circle class="cls-2" cx="2079.04004" cy="544" r="32"/><line class="cls-6" x1="2079.04004" y1="544" x2="2143.03571" y2="288"/><line class="cls-2" x1="2143.03997" y1="320.00003" x2="2135.03997" y2="320.00003"/><path class="cls-2" d="M2413.07007,492.47a32.004,32.004,0,0,1-32,32h-192a32,32,0,0,1,0-64h192A32.004,32.004,0,0,1,2413.07007,492.47Z" transform="translate(-46.03003 -204.46997)"/><path class="cls-1" d="M426.78632,733.3493a4.72192,4.72192,0,0,0-.56684-.87982,4.58855,4.58855,0,0,0-2.7218-3.21069c-3.9165-11.98053-12.401-21.69153-19.27643-32.20349a119.49925,119.49925,0,0,1-17.49853-44.54364c-1.13452-6.32416-10.7735-3.64453-9.64282,2.65838a127.11976,127.11976,0,0,0,16.647,43.999c6.6745,10.874,15.97284,20.62243,20.10278,32.77923a4.80075,4.80075,0,0,0,.2843,2.21478q.58365,1.6248,1.16736,3.24964a4.90035,4.90035,0,0,0,4.9632,3.484,4.76229,4.76229,0,0,0,2.96692.94165C428.06812,741.83826,429.2627,736.14331,426.78632,733.3493Z" transform="translate(-46.03003 -204.46997)"/></svg>