<svg id="Layer_1" data-name="Layer 1" xmlns="http://www.w3.org/2000/svg" width="640" height="576" viewBox="0 0 640 576"><defs><style>.cls-1,.cls-2,.cls-3,.cls-4{stroke:#000;stroke-miterlimit:10;}.cls-2,.cls-4{fill:none;}.cls-2,.cls-3{stroke-width:64px;}</style></defs><title>narrativV</title><path class="cls-1" d="M511.76923,383.76923a32,32,0,1,1-32-32A32.01064,32.01064,0,0,1,511.76923,383.76923Z" transform="translate(-319.77002 -223.76996)"/><line class="cls-2" x1="223.99921" y1="415.99927" x2="159.99705" y2="159.99927"/><path class="cls-3" d="M607.7649,383.76923" transform="translate(-319.77002 -223.76996)"/><circle class="cls-1" cx="223.99921" cy="415.99927" r="32"/><line class="cls-2" x1="223.99921" y1="415.99927" x2="287.99488" y2="159.99927"/><line class="cls-4" x1="287.99914" y1="191.9993" x2="279.99914" y2="191.9993"/><path class="cls-1" d="M831.76923,383.76923a32.004,32.004,0,0,1-32,32h-192a32,32,0,0,1,0-64h192A32.004,32.004,0,0,1,831.76923,383.76923Z" transform="translate(-319.77002 -223.76996)"/><path d="M351.77,799.26953a31.5357,31.5357,0,0,1-31.5-31.5V255.77a31.5357,31.5357,0,0,1,31.5-31.5H927.76953a31.5357,31.5357,0,0,1,31.5,31.5V767.76953a31.5357,31.5357,0,0,1-31.5,31.5Zm31.5-63H896.26953V287.27H383.27Z" transform="translate(-319.77002 -223.76996)"/><path d="M927.77,224.77a31.03515,31.03515,0,0,1,31,31v512a31.03513,31.03513,0,0,1-31,31h-576a31.03515,31.03515,0,0,1-31-31v-512a31.03516,31.03516,0,0,1,31-31h576m-545,512h514v-450h-514v450m545-513h-576a32.00394,32.00394,0,0,0-32,32v512a32.00388,32.00388,0,0,0,32,32h576a32.00393,32.00393,0,0,0,32-32v-512a32.004,32.004,0,0,0-32-32Zm-544,512v-448h512v448Z" transform="translate(-319.77002 -223.76996)"/></svg>