<svg id="Layer_1" data-name="Layer 1" xmlns="http://www.w3.org/2000/svg" width="61.12638" height="39.31527" viewBox="0 0 61.12638 39.31527"><defs><style>.cls-1{fill:lime;}.cls-2{fill:#ff0;}.cls-3{fill:#006837;}.cls-4{font-size:4px;}.cls-4,.cls-7{font-family:MyriadPro-Regular, Myriad Pro;}.cls-5{letter-spacing:0.01196em;}.cls-6{letter-spacing:-0.00391em;}.cls-7{font-size:6px;}.cls-8{letter-spacing:-0.007em;}.cls-9{letter-spacing:-0.01001em;}.cls-10{letter-spacing:0.02498em;}.cls-11{letter-spacing:-0.00993em;}.cls-12{letter-spacing:-0.00602em;}.cls-13{letter-spacing:0.00407em;}.cls-14{letter-spacing:-0.01196em;}.cls-15{fill:red;}</style></defs><title>ratingsGrid</title><rect class="cls-1" y="15.80498" width="8.36463" height="5.22789"/><rect class="cls-2" y="7.96314" width="8.36463" height="5.22789"/><rect class="cls-3" y="23.64682" width="8.36463" height="5.22789"/><text class="cls-4" transform="translate(0.00007 36.94287)">* <tspan class="cls-5" x="2.5083" y="0">R</tspan><tspan class="cls-6" x="4.70801" y="0">a</tspan><tspan x="6.62061" y="0">tings based on use of language</tspan></text><text class="cls-7" transform="translate(16.72902 5.02239)"><tspan class="cls-8">E</tspan><tspan class="cls-9" x="2.91016" y="0">v</tspan><tspan x="5.73584" y="0">e</tspan><tspan class="cls-10" x="8.7417" y="0">r</tspan><tspan class="cls-11" x="10.85352" y="0">y</tspan><tspan x="13.61963" y="0">one</tspan></text><text class="cls-7" transform="translate(16.72902 12.75759)">Dis<tspan class="cls-12" x="7.77588" y="0">c</tspan><tspan x="10.42773" y="0">e</tspan><tspan class="cls-13" x="13.43408" y="0">r</tspan><tspan x="15.42041" y="0">ning</tspan></text><text class="cls-7" transform="translate(16.72902 20.60516)"><tspan class="cls-14">A</tspan><tspan x="3.6001" y="0">dult</tspan></text><text class="cls-7" transform="translate(16.72902 28.41812)">Disrupti<tspan class="cls-11" x="19.84814" y="0">v</tspan><tspan x="22.67432" y="0">e</tspan></text><rect class="cls-15" y="0.1213" width="8.36463" height="5.22789"/><text class="cls-7" transform="translate(2.09122 5.02219)">E</text><text class="cls-7" transform="translate(1.91627 12.75739)">D</text><text class="cls-7" transform="translate(1.91627 20.76183)">A</text><text class="cls-7" transform="translate(2.09122 28.41792)">D</text></svg>