<svg width="36" height="32" viewBox="0 0 36 32" xmlns="http://www.w3.org/2000/svg"><path d="M13.195 19.657a.858.858 0 0 1-.572.114 1.2 1.2 0 0 1-1.03-.572l-.114-.114-3.202-6.976v-.229a.538.538 0 0 1 .572-.572.423.423 0 0 1 .343.115l3.774 2.63c.31.183.67.263 1.03.229.197.03.4-.01.57-.115l17.728-7.89A18.744 18.744 0 0 0 17.998.1C8.277.1.5 6.619.5 14.739a14.124 14.124 0 0 0 6.061 11.094c.408.277.592.784.458 1.258-.229 1.143-.8 2.859-.8 2.973 0 .115-.115.343-.115.458a.538.538 0 0 0 .572.571.423.423 0 0 0 .343-.114l3.774-2.287c.263-.194.592-.277.915-.229a1.03 1.03 0 0 1 .572.114c1.854.554 3.782.824 5.718.801 9.607 0 17.498-6.519 17.498-14.639a12.58 12.58 0 0 0-1.944-6.747L13.423 19.657h-.228z" fill="#1AAD19" fill-rule="nonzero"/></svg>
