<?xml version="1.0" standalone="no"?>
<!DOCTYPE svg PUBLIC "-//W3C//DTD SVG 20010904//EN"
 "http://www.w3.org/TR/2001/REC-SVG-20010904/DTD/svg10.dtd">
<svg version="1.0" xmlns="http://www.w3.org/2000/svg"
 width="641.000000pt" height="641.000000pt" viewBox="0 0 641.000000 641.000000"
 preserveAspectRatio="xMidYMid meet">
<metadata>
Created by potrace 1.11, written by Peter Selinger 2001-2013
</metadata>
<g transform="translate(0.000000,641.000000) scale(0.100000,-0.100000)"
fill="#000000" stroke="none">
<path d="M295 6079 c-124 -12 -228 -93 -271 -210 -14 -40 -16 -283 -16 -2669
l0 -2625 25 -56 c33 -75 87 -132 155 -166 l57 -28 2965 0 2965 0 55 30 c69 38
113 82 148 148 l27 52 0 2645 0 2645 -28 57 c-34 68 -91 122 -166 155 l-56 25
-2900 1 c-1595 1 -2927 -1 -2960 -4z m5473 -2878 l0 -2240 -2559 1 -2559 0 0
2239 0 2239 2559 0 2558 0 1 -2239z"/>
<path d="M1530 4798 c-153 -39 -258 -184 -245 -337 3 -32 14 -84 24 -117 11
-32 23 -75 27 -94 4 -19 9 -39 10 -45 20 -73 57 -219 64 -250 5 -22 14 -60 20
-85 7 -25 13 -52 15 -60 2 -8 29 -114 60 -235 30 -121 57 -229 59 -240 2 -11
7 -27 10 -35 3 -8 8 -26 11 -40 2 -14 12 -52 20 -85 9 -33 20 -78 25 -100 5
-22 14 -60 20 -85 7 -25 13 -52 15 -60 20 -85 47 -191 55 -215 5 -16 18 -70
30 -120 12 -49 23 -97 25 -105 5 -16 24 -94 31 -122 2 -10 6 -26 9 -35 14 -54
26 -103 34 -138 5 -22 16 -65 24 -95 8 -30 27 -109 42 -174 14 -66 35 -136 45
-156 26 -51 93 -115 148 -142 55 -27 166 -36 229 -19 96 26 190 118 217 214 8
28 124 491 257 1027 133 536 261 1049 284 1140 l42 165 834 2 c459 1 858 4
886 6 107 11 213 97 254 206 28 75 24 185 -9 253 -31 63 -95 126 -162 157
l-55 26 -1040 0 -1040 0 -55 -28 c-107 -55 -159 -127 -186 -259 -8 -40 -33
-145 -56 -233 -22 -88 -41 -164 -42 -170 -1 -5 -5 -19 -9 -30 -3 -11 -8 -31
-11 -45 -2 -14 -16 -72 -31 -130 -15 -58 -28 -109 -29 -115 -1 -5 -5 -19 -9
-30 -3 -11 -8 -31 -11 -45 -2 -14 -16 -72 -31 -130 -15 -58 -28 -109 -29 -115
-1 -5 -5 -19 -9 -30 -3 -11 -9 -33 -12 -50 -3 -16 -7 -34 -9 -40 -2 -5 -6 -23
-10 -40 -18 -71 -19 -72 -28 -35 -5 19 -10 42 -12 50 -4 13 -19 74 -30 120 -2
8 -9 35 -16 60 -7 25 -13 52 -15 60 -2 8 -11 44 -20 80 -9 36 -18 72 -20 80
-2 8 -11 44 -20 80 -9 36 -18 72 -20 80 -2 8 -11 44 -20 80 -9 36 -18 72 -20
80 -2 8 -22 89 -45 180 -22 91 -43 174 -46 185 -3 11 -12 54 -20 95 -19 95
-44 148 -97 201 -76 77 -206 114 -307 87z"/>
</g>
</svg>
